<svg width="430" height="379" viewBox="0 0 430 379" fill="none" xmlns="http://www.w3.org/2000/svg">
<g clip-path="url(#clip0)">
<rect width="430" height="379" fill="white"/>
<path d="M274.303 137.232C324.481 181.505 323.792 252.485 274.605 296.079C274.513 296.168 274.404 296.264 274.303 296.353L217.865 346.097C168.088 389.97 87.1027 389.964 37.3327 346.097C-12.4449 302.23 -12.4449 230.842 37.3327 186.976L68.4959 159.509C76.76 152.225 90.992 157.066 91.4186 167.36C91.9628 180.478 94.6319 193.658 99.5567 206.386C101.225 210.695 100.033 215.462 96.3796 218.682L85.3885 228.37C61.8511 249.116 61.1128 282.895 84.4185 303.844C107.954 324.999 146.639 325.125 170.356 304.222L226.793 254.485C250.469 233.617 250.37 199.888 226.793 179.107C223.685 176.373 220.554 174.248 218.108 172.764C216.378 171.717 214.95 170.328 213.937 168.708C212.924 167.088 212.354 165.281 212.274 163.433C211.941 155.611 215.086 147.551 222.098 141.37L239.78 125.784C244.417 121.697 251.691 121.195 257.068 124.503C263.225 128.292 268.993 132.552 274.303 137.232ZM392.666 32.9025C342.896 -10.9652 261.911 -10.9711 212.134 32.9025L155.696 82.6461C155.595 82.735 155.486 82.8312 155.394 82.92C106.207 126.514 105.518 197.494 155.696 241.767C161.006 246.447 166.773 250.706 172.931 254.496C178.307 257.803 185.582 257.3 190.218 253.214L207.9 237.629C214.913 231.448 218.057 223.387 217.724 215.565C217.644 213.717 217.075 211.91 216.062 210.29C215.049 208.67 213.62 207.281 211.89 206.234C209.444 204.75 206.313 202.625 203.205 199.891C179.628 179.11 179.529 145.381 203.205 124.513L259.643 74.7767C283.359 53.8733 322.043 53.9991 345.58 75.1543C368.885 96.1028 368.148 129.883 344.61 150.628L333.619 160.316C329.965 163.536 328.774 168.303 330.442 172.613C335.366 185.34 338.035 198.52 338.58 211.638C339.007 221.932 353.238 226.773 361.502 219.489L392.666 192.022C442.444 148.157 442.444 76.7687 392.666 32.9025Z" fill="#168FBE"/>
</g>
<defs>
<clipPath id="clip0">
<rect width="430" height="379" fill="white"/>
</clipPath>
</defs>
</svg>
